{"asset":{"version":"2.0","generator":"Blockbench 3.9.2 glTF exporter"},"scenes":[{"nodes":[0,1,2,3,4,5,6,7,8,9,10],"name":"blockbench_export"}],"scene":0,"nodes":[{"translation":[0.5,0.21875,0.5],"name":"3c15de40-85ca-fb9e-fbeb-08a40459fd8f","mesh":0},{"translation":[0.5,0.21875,0.5],"name":"c2d8dea5-e60b-15e4-1fc8-dcf49fea849d","mesh":1},{"translation":[-0.375,0.375,0.125],"name":"c22135f6-8bcf-1f3e-3067-21af6d46b5cf","mesh":2},{"translation":[-0.375,0.375,0.125],"name":"d108d6cf-0fde-d773-819d-e605ed15994c","mesh":3},{"translation":[0.5,0.53125,0.5],"name":"4e587c42-24cd-f4c4-a055-c2d0852cbc4d","mesh":4},{"translation":[0.5,0.53125,0.5],"name":"a1188b3d-8def-b720-78a6-326efc164457","mesh":5},{"translation":[0.5,0.46875,0.5],"name":"1cc70a0f-f9af-29bf-eec1-09948424fc7f","mesh":6},{"translation":[-0.375,0.375,0.125],"name":"9dbb8fca-6cf3-4900-1423-b4acd676f677","mesh":7},{"translation":[-0.375,0.375,0.125],"name":"57dd759f-8f58-bda3-646b-38a227c8d64b","mesh":8},{"translation":[-0.375,0.375,0.125],"name":"1c828fc2-df99-4a9d-1c6c-ee9b7875dfc9","mesh":9},{"translation":[-0.25,0,-0.1875],"name":"7ea273bc-0e6f-4363-14a6-c33fafd8cd32","mesh":10}],"bufferViews":[{"buffer":0,"byteOffset":0,"byteLength":432,"target":34962,"byteStride":12},{"buffer":0,"byteOffset":432,"byteLength":432,"target":34962,"byteStride":12},{"buffer":0,"byteOffset":864,"byteLength":288,"target":34962,"byteStride":8},{"buffer":0,"byteOffset":1152,"byteLength":12,"target":34963},{"buffer":0,"byteOffset":1164,"byteLength":12,"target":34963},{"buffer":0,"byteOffset":1176,"byteLength":12,"target":34963},{"buffer":0,"byteOffset":1188,"byteLength":12,"target":34963},{"buffer":0,"byteOffset":1200,"byteLength":12,"target":34963},{"buffer":0,"byteOffset":1212,"byteLength":12,"target":34963},{"buffer":0,"byteOffset":1224,"byteLength":432,"target":34962,"byteStride":12},{"buffer":0,"byteOffset":1656,"byteLength":432,"target":34962,"byteStride":12},{"buffer":0,"byteOffset":2088,"byteLength":288,"target":34962,"byteStride":8},{"buffer":0,"byteOffset":2376,"byteLength":12,"target":34963},{"buffer":0,"byteOffset":2388,"byteLength":12,"target":34963},{"buffer":0,"byteOffset":2400,"byteLength":12,"target":34963},{"buffer":0,"byteOffset":2412,"byteLength":12,"target":34963},{"buffer":0,"byteOffset":2424,"byteLength":12,"target":34963},{"buffer":0,"byteOffset":2436,"byteLength":12,"target":34963},{"buffer":0,"byteOffset":2448,"byteLength":432,"target":34962,"byteStride":12},{"buffer":0,"byteOffset":2880,"byteLength":432,"target":34962,"byteStride":12},{"buffer":0,"byteOffset":3312,"byteLength":288,"target":34962,"byteStride":8},{"buffer":0,"byteOffset":3600,"byteLength":12,"target":34963},{"buffer":0,"byteOffset":3612,"byteLength":12,"target":34963},{"buffer":0,"byteOffset":3624,"byteLength":12,"target":34963},{"buffer":0,"byteOffset":3636,"byteLength":12,"target":34963},{"buffer":0,"byteOffset":3648,"byteLength":12,"target":34963},{"buffer":0,"byteOffset":3660,"byteLength":12,"target":34963},{"buffer":0,"byteOffset":3672,"byteLength":432,"target":34962,"byteStride":12},{"buffer":0,"byteOffset":4104,"byteLength":432,"target":34962,"byteStride":12},{"buffer":0,"byteOffset":4536,"byteLength":288,"target":34962,"byteStride":8},{"buffer":0,"byteOffset":4824,"byteLength":12,"target":34963},{"buffer":0,"byteOffset":4836,"byteLength":12,"target":34963},{"buffer":0,"byteOffset":4848,"byteLength":12,"target":34963},{"buffer":0,"byteOffset":4860,"byteLength":12,"target":34963},{"buffer":0,"byteOffset":4872,"byteLength":12,"target":34963},{"buffer":0,"byteOffset":4884,"byteLength":12,"target":34963},{"buffer":0,"byteOffset":4896,"byteLength":432,"target":34962,"byteStride":12},{"buffer":0,"byteOffset":5328,"byteLength":432,"target":34962,"byteStride":12},{"buffer":0,"byteOffset":5760,"byteLength":288,"target":34962,"byteStride":8},{"buffer":0,"byteOffset":6048,"byteLength":12,"target":34963},{"buffer":0,"byteOffset":6060,"byteLength":12,"target":34963},{"buffer":0,"byteOffset":6072,"byteLength":12,"target":34963},{"buffer":0,"byteOffset":6084,"byteLength":12,"target":34963},{"buffer":0,"byteOffset":6096,"byteLength":12,"target":34963},{"buffer":0,"byteOffset":6108,"byteLength":12,"target":34963},{"buffer":0,"byteOffset":6120,"byteLength":432,"target":34962,"byteStride":12},{"buffer":0,"byteOffset":6552,"byteLength":432,"target":34962,"byteStride":12},{"buffer":0,"byteOffset":6984,"byteLength":288,"target":34962,"byteStride":8},{"buffer":0,"byteOffset":7272,"byteLength":12,"target":34963},{"buffer":0,"byteOffset":7284,"byteLength":12,"target":34963},{"buffer":0,"byteOffset":7296,"byteLength":12,"target":34963},{"buffer":0,"byteOffset":7308,"byteLength":12,"target":34963},{"buffer":0,"byteOffset":7320,"byteLength":12,"target":34963},{"buffer":0,"byteOffset":7332,"byteLength":12,"target":34963},{"buffer":0,"byteOffset":7344,"byteLength":432,"target":34962,"byteStride":12},{"buffer":0,"byteOffset":7776,"byteLength":432,"target":34962,"byteStride":12},{"buffer":0,"byteOffset":8208,"byteLength":288,"target":34962,"byteStride":8},{"buffer":0,"byteOffset":8496,"byteLength":432,"target":34962,"byteStride":12},{"buffer":0,"byteOffset":8928,"byteLength":432,"target":34962,"byteStride":12},{"buffer":0,"byteOffset":9360,"byteLength":288,"target":34962,"byteStride":8},{"buffer":0,"byteOffset":9648,"byteLength":432,"target":34962,"byteStride":12},{"buffer":0,"byteOffset":10080,"byteLength":432,"target":34962,"byteStride":12},{"buffer":0,"byteOffset":10512,"byteLength":288,"target":34962,"byteStride":8},{"buffer":0,"byteOffset":10800,"byteLength":12,"target":34963},{"buffer":0,"byteOffset":10812,"byteLength":12,"target":34963},{"buffer":0,"byteOffset":10824,"byteLength":12,"target":34963},{"buffer":0,"byteOffset":10836,"byteLength":12,"target":34963},{"buffer":0,"byteOffset":10848,"byteLength":12,"target":34963},{"buffer":0,"byteOffset":10860,"byteLength":12,"target":34963},{"buffer":0,"byteOffset":10872,"byteLength":432,"target":34962,"byteStride":12},{"buffer":0,"byteOffset":11304,"byteLength":432,"target":34962,"byteStride":12},{"buffer":0,"byteOffset":11736,"byteLength":288,"target":34962,"byteStride":8},{"buffer":0,"byteOffset":12024,"byteLength":12,"target":34963},{"buffer":0,"byteOffset":12036,"byteLength":12,"target":34963},{"buffer":0,"byteOffset":12048,"byteLength":12,"target":34963},{"buffer":0,"byteOffset":12060,"byteLength":12,"target":34963},{"buffer":0,"byteOffset":12072,"byteLength":12,"target":34963},{"buffer":0,"byteOffset":12084,"byteLength":12,"target":34963},{"buffer":0,"byteOffset":12096,"byteLength":432,"target":34962,"byteStride":12},{"buffer":0,"byteOffset":12528,"byteLength":432,"target":34962,"byteStride":12},{"buffer":0,"byteOffset":12960,"byteLength":288,"target":34962,"byteStride":8}],"buffers":[{"byteLength":13248,"uri":"data:application/octet-stream;base64,"}],"accessors":[{"bufferView":0,"componentType":5126,"count":36,"max":[0.1875,0.03125,-0.187437504529953],"min":[-0.1875,-0.03125,-0.1875],"type":"VEC3"},{"bufferView":1,"componentType":5126,"count":36,"max":[1,1,1],"min":[-1,-1,-1],"type":"VEC3"},{"bufferView":2,"componentType":5126,"count":36,"max":[0.625,1],"min":[0,0.375],"type":"VEC2"},{"bufferView":3,"componentType":5123,"count":6,"max":[5],"min":[0],"type":"SCALAR"},{"bufferView":4,"componentType":5123,"count":6,"max":[11],"min":[6],"type":"SCALAR"},{"bufferView":5,"componentType":5123,"count":6,"max":[17],"min":[12],"type":"SCALAR"},{"bufferView":6,"componentType":5123,"count":6,"max":[23],"min":[18],"type":"SCALAR"},{"bufferView":7,"componentType":5123,"count":6,"max":[29],"min":[24],"type":"SCALAR"},{"bufferView":8,"componentType":5123,"count":6,"max":[35],"min":[30],"type":"SCALAR"},{"bufferView":9,"componentType":5126,"count":36,"max":[0.1875,0.03125,0.187562495470047],"min":[-0.1875,-0.03125,0.1875],"type":"VEC3"},{"bufferView":10,"componentType":5126,"count":36,"max":[1,1,1],"min":[-1,-1,-1],"type":"VEC3"},{"bufferView":11,"componentType":5126,"count":36,"max":[0.625,1],"min":[0,0.375],"type":"VEC2"},{"bufferView":12,"componentType":5123,"count":6,"max":[5],"min":[0],"type":"SCALAR"},{"bufferView":13,"componentType":5123,"count":6,"max":[11],"min":[6],"type":"SCALAR"},{"bufferView":14,"componentType":5123,"count":6,"max":[17],"min":[12],"type":"SCALAR"},{"bufferView":15,"componentType":5123,"count":6,"max":[23],"min":[18],"type":"SCALAR"},{"bufferView":16,"componentType":5123,"count":6,"max":[29],"min":[24],"type":"SCALAR"},{"bufferView":17,"componentType":5123,"count":6,"max":[35],"min":[30],"type":"SCALAR"},{"bufferView":18,"componentType":5126,"count":36,"max":[1.0625624656677246,-0.125,0.5625],"min":[1.0625,-0.1875,0.1875],"type":"VEC3"},{"bufferView":19,"componentType":5126,"count":36,"max":[1,1,1],"min":[-1,-1,-1],"type":"VEC3"},{"bufferView":20,"componentType":5126,"count":36,"max":[0.625,1],"min":[0,0.375],"type":"VEC2"},{"bufferView":21,"componentType":5123,"count":6,"max":[5],"min":[0],"type":"SCALAR"},{"bufferView":22,"componentType":5123,"count":6,"max":[11],"min":[6],"type":"SCALAR"},{"bufferView":23,"componentType":5123,"count":6,"max":[17],"min":[12],"type":"SCALAR"},{"bufferView":24,"componentType":5123,"count":6,"max":[23],"min":[18],"type":"SCALAR"},{"bufferView":25,"componentType":5123,"count":6,"max":[29],"min":[24],"type":"SCALAR"},{"bufferView":26,"componentType":5123,"count":6,"max":[35],"min":[30],"type":"SCALAR"},{"bufferView":27,"componentType":5126,"count":36,"max":[0.6875625252723694,-0.125,0.5625],"min":[0.6875,-0.1875,0.1875],"type":"VEC3"},{"bufferView":28,"componentType":5126,"count":36,"max":[1,1,1],"min":[-1,-1,-1],"type":"VEC3"},{"bufferView":29,"componentType":5126,"count":36,"max":[0.625,1],"min":[0,0.375],"type":"VEC2"},{"bufferView":30,"componentType":5123,"count":6,"max":[5],"min":[0],"type":"SCALAR"},{"bufferView":31,"componentType":5123,"count":6,"max":[11],"min":[6],"type":"SCALAR"},{"bufferView":32,"componentType":5123,"count":6,"max":[17],"min":[12],"type":"SCALAR"},{"bufferView":33,"componentType":5123,"count":6,"max":[23],"min":[18],"type":"SCALAR"},{"bufferView":34,"componentType":5123,"count":6,"max":[29],"min":[24],"type":"SCALAR"},{"bufferView":35,"componentType":5123,"count":6,"max":[35],"min":[30],"type":"SCALAR"},{"bufferView":36,"componentType":5126,"count":36,"max":[0.1875,0.28125,0.187562495470047],"min":[-0.1875,-0.28125,0.1875],"type":"VEC3"},{"bufferView":37,"componentType":5126,"count":36,"max":[1,1,1],"min":[-1,-1,-1],"type":"VEC3"},{"bufferView":38,"componentType":5126,"count":36,"max":[0.625,1],"min":[0,0.375],"type":"VEC2"},{"bufferView":39,"componentType":5123,"count":6,"max":[5],"min":[0],"type":"SCALAR"},{"bufferView":40,"componentType":5123,"count":6,"max":[11],"min":[6],"type":"SCALAR"},{"bufferView":41,"componentType":5123,"count":6,"max":[17],"min":[12],"type":"SCALAR"},{"bufferView":42,"componentType":5123,"count":6,"max":[23],"min":[18],"type":"SCALAR"},{"bufferView":43,"componentType":5123,"count":6,"max":[29],"min":[24],"type":"SCALAR"},{"bufferView":44,"componentType":5123,"count":6,"max":[35],"min":[30],"type":"SCALAR"},{"bufferView":45,"componentType":5126,"count":36,"max":[0.1875,0.28125,-0.187437504529953],"min":[-0.1875,-0.28125,-0.1875],"type":"VEC3"},{"bufferView":46,"componentType":5126,"count":36,"max":[1,1,1],"min":[-1,-1,-1],"type":"VEC3"},{"bufferView":47,"componentType":5126,"count":36,"max":[0.625,1],"min":[0,0.375],"type":"VEC2"},{"bufferView":48,"componentType":5123,"count":6,"max":[5],"min":[0],"type":"SCALAR"},{"bufferView":49,"componentType":5123,"count":6,"max":[11],"min":[6],"type":"SCALAR"},{"bufferView":50,"componentType":5123,"count":6,"max":[17],"min":[12],"type":"SCALAR"},{"bufferView":51,"componentType":5123,"count":6,"max":[23],"min":[18],"type":"SCALAR"},{"bufferView":52,"componentType":5123,"count":6,"max":[29],"min":[24],"type":"SCALAR"},{"bufferView":53,"componentType":5123,"count":6,"max":[35],"min":[30],"type":"SCALAR"},{"bufferView":54,"componentType":5126,"count":36,"max":[0.0000625000029685907,-0.15625,0.03125],"min":[0,-0.40625,-0.03125],"type":"VEC3"},{"bufferView":55,"componentType":5126,"count":36,"max":[1,1,1],"min":[-1,-1,-1],"type":"VEC3"},{"bufferView":56,"componentType":5126,"count":36,"max":[0.375,1],"min":[0.0625,0.375],"type":"VEC2"},{"bufferView":57,"componentType":5126,"count":36,"max":[1.0625,0.437562495470047,0.5625],"min":[0.6875,0.4375,0.1875],"type":"VEC3"},{"bufferView":58,"componentType":5126,"count":36,"max":[1,1,1],"min":[-1,-1,-1],"type":"VEC3"},{"bufferView":59,"componentType":5126,"count":36,"max":[0.375,1],"min":[0.1875,0.5],"type":"VEC2"},{"bufferView":60,"componentType":5126,"count":36,"max":[0.6875625252723694,0.4375,0.5625],"min":[0.6875,-0.125,0.1875],"type":"VEC3"},{"bufferView":61,"componentType":5126,"count":36,"max":[1,1,1],"min":[-1,-1,-1],"type":"VEC3"},{"bufferView":62,"componentType":5126,"count":36,"max":[0.625,1],"min":[0,0.375],"type":"VEC2"},{"bufferView":63,"componentType":5123,"count":6,"max":[5],"min":[0],"type":"SCALAR"},{"bufferView":64,"componentType":5123,"count":6,"max":[11],"min":[6],"type":"SCALAR"},{"bufferView":65,"componentType":5123,"count":6,"max":[17],"min":[12],"type":"SCALAR"},{"bufferView":66,"componentType":5123,"count":6,"max":[23],"min":[18],"type":"SCALAR"},{"bufferView":67,"componentType":5123,"count":6,"max":[29],"min":[24],"type":"SCALAR"},{"bufferView":68,"componentType":5123,"count":6,"max":[35],"min":[30],"type":"SCALAR"},{"bufferView":69,"componentType":5126,"count":36,"max":[1.0625624656677246,0.4375,0.5625],"min":[1.0625,-0.125,0.1875],"type":"VEC3"},{"bufferView":70,"componentType":5126,"count":36,"max":[1,1,1],"min":[-1,-1,-1],"type":"VEC3"},{"bufferView":71,"componentType":5126,"count":36,"max":[0.625,1],"min":[0,0.375],"type":"VEC2"},{"bufferView":72,"componentType":5123,"count":6,"max":[5],"min":[0],"type":"SCALAR"},{"bufferView":73,"componentType":5123,"count":6,"max":[11],"min":[6],"type":"SCALAR"},{"bufferView":74,"componentType":5123,"count":6,"max":[17],"min":[12],"type":"SCALAR"},{"bufferView":75,"componentType":5123,"count":6,"max":[23],"min":[18],"type":"SCALAR"},{"bufferView":76,"componentType":5123,"count":6,"max":[29],"min":[24],"type":"SCALAR"},{"bufferView":77,"componentType":5123,"count":6,"max":[35],"min":[30],"type":"SCALAR"},{"bufferView":78,"componentType":5126,"count":36,"max":[1,0.1875,0.9375],"min":[0.5,0,0.4375],"type":"VEC3"},{"bufferView":79,"componentType":5126,"count":36,"max":[1,1,1],"min":[-1,-1,-1],"type":"VEC3"},{"bufferView":80,"componentType":5126,"count":36,"max":[0.5625,0.4375],"min":[0,0.1875],"type":"VEC2"}],"materials":[{"pbrMetallicRoughness":{"metallicFactor":0,"roughnessFactor":1,"baseColorTexture":{"index":0}},"alphaMode":"MASK","alphaCutoff":0.05},{"pbrMetallicRoughness":{"baseColorFactor":[0.7725490196078432,0.6509803921568628,0.9098039215686274,1],"metallicFactor":0,"roughnessFactor":1,"baseColorTexture":{"index":1}}},{"pbrMetallicRoughness":{"baseColorFactor":[1,0.6549019607843137,0.6431372549019608,1],"metallicFactor":0,"roughnessFactor":1,"baseColorTexture":{"index":1}}},{"pbrMetallicRoughness":{"baseColorFactor":[0.6352941176470588,0.9215686274509803,1,1],"metallicFactor":0,"roughnessFactor":1,"baseColorTexture":{"index":1}}},{"pbrMetallicRoughness":{"baseColorFactor":[0.9098039215686274,0.7411764705882353,0.4823529411764706,1],"metallicFactor":0,"roughnessFactor":1,"baseColorTexture":{"index":1}}}],"textures":[{"sampler":0,"source":0},{"sampler":1,"source":1}],"samplers":[{"magFilter":9728,"minFilter":9728,"wrapS":33071,"wrapT":33071},{"magFilter":9728,"minFilter":9728,"wrapS":10497,"wrapT":10497}],"images":[{"mimeType":"image/png","uri":"data:image/png;base64,"},{"mimeType":"image/png","uri":"data:image/png;base64,"}],"meshes":[{"primitives":[{"mode":4,"attributes":{"POSITION":0,"NORMAL":1,"TEXCOORD_0":2},"indices":3,"material":0},{"mode":4,"attributes":{"POSITION":0,"NORMAL":1,"TEXCOORD_0":2},"indices":4,"material":0},{"mode":4,"attributes":{"POSITION":0,"NORMAL":1,"TEXCOORD_0":2},"indices":5,"material":0},{"mode":4,"attributes":{"POSITION":0,"NORMAL":1,"TEXCOORD_0":2},"indices":6,"material":1},{"mode":4,"attributes":{"POSITION":0,"NORMAL":1,"TEXCOORD_0":2},"indices":7,"material":0},{"mode":4,"attributes":{"POSITION":0,"NORMAL":1,"TEXCOORD_0":2},"indices":8,"material":0}]},{"primitives":[{"mode":4,"attributes":{"POSITION":9,"NORMAL":10,"TEXCOORD_0":11},"indices":12,"material":0},{"mode":4,"attributes":{"POSITION":9,"NORMAL":10,"TEXCOORD_0":11},"indices":13,"material":0},{"mode":4,"attributes":{"POSITION":9,"NORMAL":10,"TEXCOORD_0":11},"indices":14,"material":0},{"mode":4,"attributes":{"POSITION":9,"NORMAL":10,"TEXCOORD_0":11},"indices":15,"material":1},{"mode":4,"attributes":{"POSITION":9,"NORMAL":10,"TEXCOORD_0":11},"indices":16,"material":0},{"mode":4,"attributes":{"POSITION":9,"NORMAL":10,"TEXCOORD_0":11},"indices":17,"material":0}]},{"primitives":[{"mode":4,"attributes":{"POSITION":18,"NORMAL":19,"TEXCOORD_0":20},"indices":21,"material":0},{"mode":4,"attributes":{"POSITION":18,"NORMAL":19,"TEXCOORD_0":20},"indices":22,"material":0},{"mode":4,"attributes":{"POSITION":18,"NORMAL":19,"TEXCOORD_0":20},"indices":23,"material":0},{"mode":4,"attributes":{"POSITION":18,"NORMAL":19,"TEXCOORD_0":20},"indices":24,"material":2},{"mode":4,"attributes":{"POSITION":18,"NORMAL":19,"TEXCOORD_0":20},"indices":25,"material":0},{"mode":4,"attributes":{"POSITION":18,"NORMAL":19,"TEXCOORD_0":20},"indices":26,"material":0}]},{"primitives":[{"mode":4,"attributes":{"POSITION":27,"NORMAL":28,"TEXCOORD_0":29},"indices":30,"material":0},{"mode":4,"attributes":{"POSITION":27,"NORMAL":28,"TEXCOORD_0":29},"indices":31,"material":0},{"mode":4,"attributes":{"POSITION":27,"NORMAL":28,"TEXCOORD_0":29},"indices":32,"material":0},{"mode":4,"attributes":{"POSITION":27,"NORMAL":28,"TEXCOORD_0":29},"indices":33,"material":3},{"mode":4,"attributes":{"POSITION":27,"NORMAL":28,"TEXCOORD_0":29},"indices":34,"material":0},{"mode":4,"attributes":{"POSITION":27,"NORMAL":28,"TEXCOORD_0":29},"indices":35,"material":0}]},{"primitives":[{"mode":4,"attributes":{"POSITION":36,"NORMAL":37,"TEXCOORD_0":38},"indices":39,"material":0},{"mode":4,"attributes":{"POSITION":36,"NORMAL":37,"TEXCOORD_0":38},"indices":40,"material":0},{"mode":4,"attributes":{"POSITION":36,"NORMAL":37,"TEXCOORD_0":38},"indices":41,"material":0},{"mode":4,"attributes":{"POSITION":36,"NORMAL":37,"TEXCOORD_0":38},"indices":42,"material":2},{"mode":4,"attributes":{"POSITION":36,"NORMAL":37,"TEXCOORD_0":38},"indices":43,"material":0},{"mode":4,"attributes":{"POSITION":36,"NORMAL":37,"TEXCOORD_0":38},"indices":44,"material":0}]},{"primitives":[{"mode":4,"attributes":{"POSITION":45,"NORMAL":46,"TEXCOORD_0":47},"indices":48,"material":0},{"mode":4,"attributes":{"POSITION":45,"NORMAL":46,"TEXCOORD_0":47},"indices":49,"material":0},{"mode":4,"attributes":{"POSITION":45,"NORMAL":46,"TEXCOORD_0":47},"indices":50,"material":0},{"mode":4,"attributes":{"POSITION":45,"NORMAL":46,"TEXCOORD_0":47},"indices":51,"material":4},{"mode":4,"attributes":{"POSITION":45,"NORMAL":46,"TEXCOORD_0":47},"indices":52,"material":0},{"mode":4,"attributes":{"POSITION":45,"NORMAL":46,"TEXCOORD_0":47},"indices":53,"material":0}]},{"primitives":[{"mode":4,"attributes":{"POSITION":54,"NORMAL":55,"TEXCOORD_0":56},"material":0}]},{"primitives":[{"mode":4,"attributes":{"POSITION":57,"NORMAL":58,"TEXCOORD_0":59},"material":0}]},{"primitives":[{"mode":4,"attributes":{"POSITION":60,"NORMAL":61,"TEXCOORD_0":62},"indices":63,"material":0},{"mode":4,"attributes":{"POSITION":60,"NORMAL":61,"TEXCOORD_0":62},"indices":64,"material":0},{"mode":4,"attributes":{"POSITION":60,"NORMAL":61,"TEXCOORD_0":62},"indices":65,"material":0},{"mode":4,"attributes":{"POSITION":60,"NORMAL":61,"TEXCOORD_0":62},"indices":66,"material":1},{"mode":4,"attributes":{"POSITION":60,"NORMAL":61,"TEXCOORD_0":62},"indices":67,"material":0},{"mode":4,"attributes":{"POSITION":60,"NORMAL":61,"TEXCOORD_0":62},"indices":68,"material":0}]},{"primitives":[{"mode":4,"attributes":{"POSITION":69,"NORMAL":70,"TEXCOORD_0":71},"indices":72,"material":0},{"mode":4,"attributes":{"POSITION":69,"NORMAL":70,"TEXCOORD_0":71},"indices":73,"material":0},{"mode":4,"attributes":{"POSITION":69,"NORMAL":70,"TEXCOORD_0":71},"indices":74,"material":0},{"mode":4,"attributes":{"POSITION":69,"NORMAL":70,"TEXCOORD_0":71},"indices":75,"material":3},{"mode":4,"attributes":{"POSITION":69,"NORMAL":70,"TEXCOORD_0":71},"indices":76,"material":0},{"mode":4,"attributes":{"POSITION":69,"NORMAL":70,"TEXCOORD_0":71},"indices":77,"material":0}]},{"primitives":[{"mode":4,"attributes":{"POSITION":78,"NORMAL":79,"TEXCOORD_0":80},"material":0}]}]}